<?xml version="1.0" encoding="UTF-8"?>
<svg id="Layer_1" xmlns="http://www.w3.org/2000/svg" version="1.1" viewBox="0 0 24 24">
  <!-- Generator: Adobe Illustrator 30.1.0, SVG Export Plug-In . SVG Version: 2.1.1 Build 136)  -->
  <path d="M10.48,16.33h-1.28c0-.15.02-.3.02-.48s0-.45,0-.81c0-.61-.01-1.23-.04-1.87-.03-.64-.07-1.29-.13-1.94,1.74-.33,3.07-.87,3.97-1.62s1.36-1.68,1.36-2.8c0-.81-.28-1.49-.84-2.05s-1.24-.84-2.05-.84c-.63,0-1.33.25-2.07.75-.75.5-1.25.74-1.51.74-.35,0-.65-.14-.89-.42-.24-.28-.36-.63-.36-1.04,0-.77.35-1.38,1.04-1.86.69-.47,1.61-.7,2.74-.7,1.9,0,3.53.61,4.87,1.84,1.34,1.23,2.01,2.71,2.01,4.44,0,1.27-.39,2.38-1.17,3.34-.78.96-1.95,1.77-3.52,2.42-.08.03-.19.08-.34.14-1.16.46-1.76,1.38-1.82,2.74ZM9.87,17.97l1.29.88c.33.22.58.45.74.69.16.24.24.51.24.79,0,.26-.07.49-.2.7s-.36.42-.67.64l-1.36.94-1.29-.81c-.35-.23-.61-.46-.77-.7-.16-.24-.24-.52-.24-.82,0-.27.08-.51.23-.74s.38-.44.7-.65l1.34-.91Z"/>
</svg>