<?xml version="1.0" encoding="UTF-8" standalone="no"?>
<!-- Created with Inkscape (http://www.inkscape.org/) -->

<svg
   xmlns:dc="http://purl.org/dc/elements/1.1/"
   xmlns:cc="http://creativecommons.org/ns#"
   xmlns:rdf="http://www.w3.org/1999/02/22-rdf-syntax-ns#"
   xmlns:svg="http://www.w3.org/2000/svg"
   xmlns="http://www.w3.org/2000/svg"
   xmlns:sodipodi="http://sodipodi.sourceforge.net/DTD/sodipodi-0.dtd"
   xmlns:inkscape="http://www.inkscape.org/namespaces/inkscape"
   width="487.79294"
   height="376.29105"
   id="svg2"
   version="1.1"
   inkscape:version="0.48.4 r9939"
   sodipodi:docname="Pashto.svg">
  <defs
     id="defs4" />
  <sodipodi:namedview
     id="base"
     pagecolor="#ffffff"
     bordercolor="#666666"
     borderopacity="1.0"
     inkscape:pageopacity="0.0"
     inkscape:pageshadow="2"
     inkscape:zoom="0.49497475"
     inkscape:cx="-171.46573"
     inkscape:cy="162.34733"
     inkscape:document-units="px"
     inkscape:current-layer="layer1"
     showgrid="false"
     inkscape:window-width="1280"
     inkscape:window-height="738"
     inkscape:window-x="-8"
     inkscape:window-y="-8"
     inkscape:window-maximized="1"
     fit-margin-top="0"
     fit-margin-left="0"
     fit-margin-right="0"
     fit-margin-bottom="0" />
  <metadata
     id="metadata7">
    <rdf:RDF>
      <cc:Work
         rdf:about="">
        <dc:format>image/svg+xml</dc:format>
        <dc:type
           rdf:resource="http://purl.org/dc/dcmitype/StillImage" />
        <dc:title></dc:title>
      </cc:Work>
    </rdf:RDF>
  </metadata>
  <g
     inkscape:label="Layer 1"
     inkscape:groupmode="layer"
     id="layer1"
     transform="translate(-819.15146,-348.64352)">
    <flowRoot
       xml:space="preserve"
       id="flowRoot3035"
       style="font-size:40px;font-style:normal;font-weight:normal;line-height:125%;letter-spacing:0px;word-spacing:0px;fill:#000000;fill-opacity:1;stroke:none;font-family:Sans"><flowRegion
         id="flowRegion3037"><rect
           id="rect3039"
           width="74.751289"
           height="86.873116"
           x="400.02042"
           y="86.656349" /></flowRegion><flowPara
         id="flowPara3041" /></flowRoot>    <flowRoot
       xml:space="preserve"
       id="flowRoot3043"
       style="font-size:40px;font-style:normal;font-weight:normal;line-height:125%;letter-spacing:0px;word-spacing:0px;fill:#000000;fill-opacity:1;stroke:none;font-family:Sans"><flowRegion
         id="flowRegion3045"><rect
           id="rect3047"
           width="254.55844"
           height="92.934036"
           x="66.670067"
           y="22.006586" /></flowRegion><flowPara
         id="flowPara3049" /></flowRoot>    <g
       id="g2997"
       transform="translate(626.29457,189.90868)">
      <path
         d="m 353.53292,281.39091 3.41797,0.48828 c 2.604,24.57705 10.74201,40.36479 24.41406,47.36328 6.02194,2.44161 11.88131,3.66231 17.57813,3.66211 6.99848,2e-4 12.85785,-2.0343 17.57812,-6.10352 5.20811,-6.67296 8.9109,-12.16612 11.1084,-16.47949 2.19703,-4.31292 4.59774,-5.81845 7.20215,-4.5166 1.4646,0.97679 1.91219,3.05198 1.34277,6.22559 -0.5699,3.17404 0.0405,5.24924 1.83106,6.22558 12.69505,3.41818 22.54205,2.1161 29.54101,-3.90625 2.92941,-1.9529 6.22531,-5.53363 9.8877,-10.74219 3.66182,-5.20809 6.30667,-8.62606 7.93457,-10.2539 3.09215,2.4e-4 4.63837,1.13956 4.63867,3.41797 -0.32582,2.27888 -1.70928,6.2665 -4.15039,11.96289 5.37079,3.41819 11.71844,2.44163 19.04297,-2.92969 3.74317,-2.60394 7.56804,-7.07984 11.47461,-13.42774 5.04524,-7.64948 8.38183,-12.53229 10.00976,-14.64843 2.44107,-0.32527 3.98729,0.56992 4.63868,2.68554 -0.65139,6.18515 -2.52313,11.3121 -5.61524,15.38086 13.34601,1.95337 25.39027,-4.55704 36.13281,-19.53125 2.92932,-8.30051 4.55692,-20.42615 4.88282,-36.37695 l 0,-17.08984 c -3.8e-4,-6.02182 0.16238,-11.14877 0.48828,-15.38086 -0.97694,-7.32389 0.73204,-15.54328 5.12695,-24.65821 0.32514,-1.30173 4.31277,-8.7887 11.96289,-22.46093 0.97617,-1.30171 2.44101,-1.78999 4.39453,-1.46485 1.95273,0.3259 2.92929,1.62798 2.92969,3.90625 -0.97696,6.34803 -1.30248,21.56611 -0.97656,45.6543 0.32512,18.555 -1.628,33.20342 -5.85938,43.94531 -9.44049,31.57577 -24.65857,52.24633 -45.65429,62.01172 -10.57977,5.04579 -19.53158,6.18511 -26.85547,3.41797 -10.09146,12.69552 -21.24054,18.88041 -33.44727,18.55469 -2.11617,-1.30189 -3.98791,-1.95293 -5.61523,-1.95313 -2.27893,2e-4 -4.80171,1.46505 -7.56836,4.39453 -3.581,4.06921 -5.85965,6.26647 -6.83594,6.5918 -8.4638,4.55748 -18.63632,5.85956 -30.51758,3.90625 -0.65128,1.9e-4 -2.52302,2.03469 -5.61523,6.10352 -10.25413,21.64729 -22.05425,34.99363 -35.40039,40.03906 -10.09133,1.4e-4 -19.12453,-3.17369 -27.09961,-9.52149 -4.23194,7.64989 -8.54508,15.46238 -12.93946,23.4375 -5.37124,8.95194 -11.71889,15.13683 -19.04296,18.55469 -1.62774,1.30219 -6.91745,3.74359 -15.86915,7.32422 -1.79048,7.81259 -4.9643,18.71753 -9.52148,32.71484 -5.69672,19.20578 -12.85817,34.66801 -21.48437,46.38672 -8.46363,4.72007 -20.34513,8.38218 -35.64454,10.98633 -19.69404,3.41798 -31.98244,5.94076 -36.86523,7.56836 0.65102,0 -2.03452,0.65104 -8.05664,1.95313 -3.7435,0.65104 -6.26628,-0.16276 -7.56836,-2.44141 -0.32552,-3.74348 1.87174,-6.91731 6.5918,-9.52149 16.92705,-8.9518 41.74799,-22.62366 74.46289,-41.01562 12.69521,-9.27728 18.55458,-16.92701 17.57812,-22.94922 -1e-4,-7.32413 -2.52288,-12.85798 -7.56836,-16.60156 -15.95059,2.27873 -26.77415,0.48837 -32.4707,-5.3711 -4.72011,-5.04546 -7.08013,-10.90483 -7.08008,-17.57812 -5e-5,-4.71993 1.66824,-11.71862 5.00488,-20.99609 3.33653,-9.2772 5.16758,-16.11313 5.49317,-20.50782 2.76686,-12.69514 7.81243,-21.40281 15.13672,-26.12304 4.55721,-2.60398 9.84691,-3.09226 15.86914,-1.46485 15.29937,8.30096 24.00704,26.12321 26.12304,53.4668 9.60274,-0.97643 19.04283,-6.91718 28.32032,-17.82227 5.04542,-8.7889 7.5682,-14.81103 7.56836,-18.0664 -1.6e-4,-1.95296 -0.48844,-3.8247 -1.46485,-5.61524 -2.2788,-19.53105 -1.95328,-41.82921 0.97657,-66.89453 0.65088,-2.60392 1.22054,-5.24878 1.70898,-7.93457 0.48812,-2.68529 1.95296,-4.67911 4.39453,-5.98144 z m -107.66601,-78.61328 0,-2.92969 c 7.32415,-9.43976 18.47323,-22.62334 33.44726,-39.55078 l 3.66211,0.48828 c 11.23037,10.41703 23.68153,20.26402 37.35352,29.54101 -1.3e-4,0.65139 0.16263,1.13967 0.48828,1.46485 l 1.70898,0 24.90235,-29.05274 c 2.27848,-2.60379 3.74332,-2.60379 4.39453,0 10.74201,9.44047 23.27455,18.96194 37.59765,28.56446 l 0,4.39453 c -7.97545,12.0446 -17.65968,23.92609 -29.05273,35.64453 -1.62777,1.30238 -3.41814,1.95343 -5.3711,1.95312 -2.11604,3.1e-4 -4.63883,-0.65074 -7.56835,-1.95312 -4.06917,-1.95282 -6.26643,-3.01076 -6.5918,-3.17383 -0.32567,-0.16245 -5.1271,-4.31284 -14.4043,-12.45117 -6.02226,-4.55697 -9.84713,-9.03288 -11.47461,-13.42774 l -0.97656,0 c -5.04569,6.02247 -12.69542,15.21842 -22.94922,27.58789 -2.11598,1.30239 -4.15049,1.95343 -6.10351,1.95313 -1.30218,3e-4 -7.32431,-3.01076 -18.06641,-9.0332 -6.67325,-5.04526 -10.66087,-8.05632 -11.96289,-9.03321 -3.90631,-3.5804 -6.91738,-7.24251 -9.0332,-10.98632 z m 290.98437,179.30999 31.00586,-40.03906 c 0.65075,-0.65091 2.35973,-0.48815 5.12695,0.48828 11.55568,10.57955 24.1696,20.26379 37.84185,29.05273 1.79,0.65115 3.6617,-0.28472 5.6152,-2.80762 1.9528,-2.52267 3.0921,-3.94682 3.418,-4.27246 7.3238,-10.5793 13.5087,-18.55455 18.5546,-23.92578 l 3.9063,0.48828 c 13.0204,12.36992 25.553,21.64725 37.5977,27.83203 0.9761,1.46496 0.9761,3.82498 0,7.08008 l -27.5879,35.15625 c -1.9535,1.30215 -3.9067,1.95319 -5.8594,1.95313 -1.9535,6e-5 -7.4874,-2.52272 -16.6016,-7.56836 -3e-4,7e-5 -4.1507,-3.17375 -12.4511,-9.52149 -5.3715,-3.90616 -9.1963,-8.05655 -11.4747,-12.45117 l -24.41403,29.05274 c -3.09275,1.95319 -7.16175,1.95319 -12.20703,0 -8.62659,-4.71998 -18.22944,-12.20696 -28.80859,-22.46094 -3.74375,-3.41788 -4.96446,-6.10342 -3.66211,-8.05664 z m 108.15426,61.52344 0,2.92968 c -9.4404,14.64846 -18.7991,26.7741 -28.0761,36.37696 -4.7204,0.81379 -9.4812,-0.4476 -14.28226,-3.78418 -4.80176,-3.33659 -9.39974,-6.5511 -13.79395,-9.64356 -9.27765,-6.34764 -13.10251,-11.63735 -11.47461,-15.86914 6.34735,-8.46351 15.86882,-20.83329 28.56442,-37.10937 l 2.4414,0.48828 c 9.1143,7.97531 21.3213,16.84575 36.6211,26.61133 z"
         id="path2994"
         inkscape:connector-curvature="0"
         sodipodi:nodetypes="ccccccccccccccccccccccccccccccccccccccccccccccccccccccsccccccccccccccccccccccccccccccccccccccccccccccccccccccccccccc"
         style="font-size:500px;font-style:normal;font-variant:normal;font-weight:normal;font-stretch:normal;text-align:start;line-height:125%;letter-spacing:0px;word-spacing:0px;writing-mode:lr-tb;text-anchor:start;fill:#000000;fill-opacity:1;stroke:none;font-family:Jameel Noori Nastaleeq;-inkscape-font-specification:Jameel Noori Nastaleeq" />
      <path
         inkscape:connector-curvature="0"
         id="path3072"
         d="m 450.68331,430.29095 0,-1.87988 c 6.26625,-8.7727 15.35234,-20.76813 27.2583,-35.98633 l 1.34278,0 c 9.57838,10.20518 21.61857,19.42555 36.1206,27.66113 0.35799,0.26865 0.53702,0.85051 0.53711,1.74561 l -26.45264,35.44922 c -0.53717,0.53716 -2.28277,0.35812 -5.23681,-0.53711 -8.95187,-4.2073 -20.14164,-13.02484 -33.56934,-26.45264 z"
         style="font-size:275px;font-style:normal;font-variant:normal;font-weight:normal;font-stretch:normal;text-align:start;line-height:125%;letter-spacing:0px;word-spacing:0px;writing-mode:lr-tb;text-anchor:start;fill:#000000;fill-opacity:1;stroke:none;font-family:Jameel Noori Nastaleeq;-inkscape-font-specification:Jameel Noori Nastaleeq" />
      <path
         inkscape:connector-curvature="0"
         id="path3075"
         style="font-size:275px;font-style:normal;font-variant:normal;font-weight:normal;font-stretch:normal;line-height:125%;letter-spacing:0px;word-spacing:0px;fill:#000000;fill-opacity:1;stroke:none;font-family:Jameel Noori Nastaleeq;-inkscape-font-specification:Jameel Noori Nastaleeq"
         d="m 448.16071,211.68799 0,-1.87988 c 6.26625,-8.7727 15.35234,-20.76813 27.2583,-35.98633 l 1.34278,0 c 9.57838,10.20518 21.61857,19.42555 36.1206,27.66113 0.35799,0.26865 0.53702,0.85051 0.53711,1.74561 l -26.45264,35.44922 c -0.53717,0.53716 -2.28277,0.35812 -5.23681,-0.53711 -8.95187,-4.2073 -20.14164,-13.02484 -33.56934,-26.45264 z" />
    </g>
  </g>
</svg>
