<?xml version="1.0" encoding="UTF-8"?>
<svg id="Layer_1" xmlns="http://www.w3.org/2000/svg" version="1.1" viewBox="0 0 500 500">
  <!-- Generator: Adobe Illustrator 30.1.0, SVG Export Plug-In . SVG Version: 2.1.1 Build 136)  -->
  <defs>
    <style>
      .st0 {
        fill: #f4f4f4;
      }

      .st1 {
        fill: #1b1852;
      }
    </style>
  </defs>
  <rect class="st1" y="0" width="500" height="500"/>
  <g id="layer1">
    <g id="g2997">
      <path id="path2994" class="st0" d="M192.57,204.81l2.36.34c1.8,16.96,7.41,27.85,16.85,32.68,4.16,1.68,8.2,2.53,12.13,2.53,4.83,0,8.87-1.4,12.13-4.21,3.59-4.6,6.15-8.4,7.67-11.37,1.52-2.98,3.17-4.02,4.97-3.12,1.01.67,1.32,2.11.93,4.3-.39,2.19.03,3.62,1.26,4.3,8.76,2.36,15.56,1.46,20.39-2.7,2.02-1.35,4.3-3.82,6.82-7.41,2.53-3.59,4.35-5.95,5.48-7.08,2.13,0,3.2.79,3.2,2.36-.22,1.57-1.18,4.32-2.86,8.26,3.71,2.36,8.09,1.68,13.14-2.02,2.58-1.8,5.22-4.89,7.92-9.27,3.48-5.28,5.78-8.65,6.91-10.11,1.68-.22,2.75.39,3.2,1.85-.45,4.27-1.74,7.81-3.87,10.61,9.21,1.35,17.52-3.14,24.93-13.48,2.02-5.73,3.14-14.1,3.37-25.1v-11.79c0-4.16.11-7.69.34-10.61-.67-5.05.51-10.73,3.54-17.02.22-.9,2.98-6.06,8.26-15.5.67-.9,1.68-1.24,3.03-1.01,1.35.22,2.02,1.12,2.02,2.7-.67,4.38-.9,14.88-.67,31.51.22,12.8-1.12,22.91-4.04,30.33-6.51,21.79-17.02,36.05-31.51,42.79-7.3,3.48-13.48,4.27-18.53,2.36-6.96,8.76-14.66,13.03-23.08,12.8-1.46-.9-2.75-1.35-3.87-1.35-1.57,0-3.31,1.01-5.22,3.03-2.47,2.81-4.04,4.32-4.72,4.55-5.84,3.15-12.86,4.04-21.06,2.7-.45,0-1.74,1.4-3.87,4.21-7.08,14.94-15.22,24.15-24.43,27.63-6.96,0-13.2-2.19-18.7-6.57-2.92,5.28-5.9,10.67-8.93,16.17-3.71,6.18-8.09,10.45-13.14,12.8-1.12.9-4.77,2.58-10.95,5.05-1.24,5.39-3.43,12.92-6.57,22.58-3.93,13.25-8.87,23.92-14.83,32.01-5.84,3.26-14.04,5.78-24.6,7.58-13.59,2.36-22.07,4.1-25.44,5.22.45,0-1.4.45-5.56,1.35-2.58.45-4.32-.11-5.22-1.68-.22-2.58,1.29-4.77,4.55-6.57,11.68-6.18,28.81-15.61,51.39-28.3,8.76-6.4,12.8-11.68,12.13-15.84,0-5.05-1.74-8.87-5.22-11.46-11.01,1.57-18.48.34-22.41-3.71-3.26-3.48-4.89-7.53-4.89-12.13,0-3.26,1.15-8.09,3.45-14.49,2.3-6.4,3.57-11.12,3.79-14.15,1.91-8.76,5.39-14.77,10.45-18.03,3.14-1.8,6.8-2.13,10.95-1.01,10.56,5.73,16.57,18.03,18.03,36.9,6.63-.67,13.14-4.77,19.54-12.3,3.48-6.07,5.22-10.22,5.22-12.47,0-1.35-.34-2.64-1.01-3.87-1.57-13.48-1.35-28.87.67-46.16.45-1.8.84-3.62,1.18-5.48.34-1.85,1.35-3.23,3.03-4.13h-.03ZM118.27,150.56v-2.02c5.05-6.51,12.75-15.61,23.08-27.29l2.53.34c7.75,7.19,16.34,13.98,25.78,20.39,0,.45.11.79.34,1.01h1.18l17.18-20.05c1.57-1.8,2.58-1.8,3.03,0,7.41,6.51,16.06,13.09,25.95,19.71v3.03c-5.5,8.31-12.19,16.51-20.05,24.6-1.12.9-2.36,1.35-3.71,1.35-1.46,0-3.2-.45-5.22-1.35-2.81-1.35-4.32-2.08-4.55-2.19-.22-.11-3.54-2.98-9.94-8.59-4.16-3.14-6.8-6.23-7.92-9.27h-.67c-3.48,4.16-8.76,10.5-15.84,19.04-1.46.9-2.86,1.35-4.21,1.35-.9,0-5.05-2.08-12.47-6.23-4.61-3.48-7.36-5.56-8.26-6.23-2.7-2.47-4.77-5-6.23-7.58h0v-.02ZM319.08,274.3l21.4-27.63c.45-.45,1.63-.34,3.54.34,7.97,7.3,16.68,13.98,26.11,20.05,1.24.45,2.53-.2,3.87-1.94,1.35-1.74,2.13-2.72,2.36-2.95,5.05-7.3,9.32-12.8,12.8-16.51l2.7.34c8.99,8.54,17.63,14.94,25.95,19.21.67,1.01.67,2.64,0,4.89l-19.04,24.26c-1.35.9-2.7,1.35-4.04,1.35s-5.17-1.74-11.46-5.22c0,0-2.86-2.19-8.59-6.57-3.71-2.7-6.35-5.56-7.92-8.59l-16.85,20.05c-2.13,1.35-4.94,1.35-8.42,0-5.95-3.26-12.58-8.42-19.88-15.5-2.58-2.36-3.43-4.21-2.53-5.56h0v-.02ZM393.71,316.75v2.02c-6.51,10.11-12.97,18.48-19.37,25.1-3.26.56-6.54-.31-9.86-2.61-3.31-2.3-6.49-4.52-9.52-6.65-6.4-4.38-9.04-8.03-7.92-10.95,4.38-5.84,10.95-14.38,19.71-25.61l1.68.34c6.29,5.5,14.71,11.62,25.27,18.36h.01Z"/>
      <path id="path3072" class="st0" d="M259.61,307.56v-1.3c4.32-6.05,10.59-14.33,18.81-24.83h.93c6.61,7.04,14.92,13.41,24.93,19.09.25.19.37.59.37,1.2l-18.25,24.46c-.37.37-1.58.25-3.61-.37-6.18-2.9-13.9-8.99-23.17-18.25h0Z"/>
      <path id="path3075" class="st0" d="M257.87,156.71v-1.3c4.32-6.05,10.59-14.33,18.81-24.83h.93c6.61,7.04,14.92,13.41,24.93,19.09.25.19.37.59.37,1.2l-18.25,24.46c-.37.37-1.58.25-3.61-.37-6.18-2.9-13.9-8.99-23.17-18.25h0Z"/>
    </g>
  </g>
</svg>