<?xml version="1.0" encoding="UTF-8"?>
<svg id="Layer_1" xmlns="http://www.w3.org/2000/svg" version="1.1" viewBox="0 0 1392 1234.64">
  <!-- Generator: Adobe Illustrator 30.1.0, SVG Export Plug-In . SVG Version: 2.1.1 Build 136)  -->
  <defs>
    <style>
      .st0 {
        fill: #fff;
      }
    </style>
  </defs>
  <path class="st0" d="M-2.82-.25h1397.64v1235.13H-2.82V-.25Z"/>
  <path d="M1073.99,803.04c26.91-11.05,53.73-22.24,80.65-33.26-1.43,4.08-3.28,8.74-8.06,10.79-24.82,10.15-49.58,20.37-74.38,30.52-1.64.7-3.26,1.46-5.05,1.84,1.64-2.79,3.18-5.62,4.75-8.43.33-.79,1.28-1.1,2.1-1.44h0v-.02ZM990.2,764.65c5.8,3.75,11.06,8.06,14.75,12.69,6.84,8.93,8.61,20.51,4.36,30.55-.38.82-1.15,1.44-1.8,2.1,1.31-5.56,1.7-11.44-.36-16.92-2.82-7.93-9.21-14.59-17.74-18.49.15-3.48.57-6.97.79-9.93h0ZM768.19,759.82c3.61-2.59,8.62-2.84,13.13-2.84,4.54.26,9.33.44,13.33,2.49,1.89,1.87.1,4.07-1.84,5.25-7.85,4.8-16.51,8.98-22.88,15.29-1.74,1.64-.84,4.18,1.36,5.13,3.31,1.41,7.13,1.48,10.77,1.39,8.62-.39,16.92-3.16,24.13-7.11,2.02-1.08,3.82-2.44,5.9-3.44-4.46,4.57-9.46,8.77-14.97,12.42-4.66,2.97-9.9,5.52-15.72,6.31-4.57.33-9.51.15-13.46-2.05-4.41-2.21-6.47-7.16-4.84-11.24.98-2.29,2.8-4.25,4.72-6.03,4.95-4.44,11-7.84,17.03-11.13-4.08-.16-8.23-.34-12.29.07-2.66.23-4.44,1.92-6.33,3.28-.57-2.67-.59-5.82,1.98-7.79h-.03ZM606.26,753.13c3.59-1.49,8.54-1.28,11.36,1.31,2.36,2.38,2.62,5.64,2.44,8.62-1.9,2.15-4.08,4.11-5.67,6.46-3.33.52-6.82.07-10.06.89-1.64.8-3.77,1.29-4.56,2.92-1.03,2.1-.56,4.43-.11,6.61,1.69,7.59,4.82,15.03,4.66,22.83-.18,2.74-.39,5.57-1.92,8.06-.36-4.34-2.16-8.44-3.46-12.62-2.48-7.61-4.43-15.42-4.72-23.33-.33-3.05,1.74-5.67,3.84-7.97,3.08-3.66,8.59-4.72,13.49-5.51-1.28-1-2.72-2.15-4.61-1.92-2.64.33-4.43,2.2-5.87,3.92-.26-3.8.97-8.29,5.2-10.28h0ZM841.08,751.65c.23-.2.54-.28.92-.23-1.39,1.36-2.16,3.07-3.23,4.59-3.05,4.88-6.57,10.08-5.77,15.83.08,2.7,1.89,6.2,5.61,6.16,1.82-.77,2.28-2.74,3.2-4.15-.11,4.21-.85,9.33-5.51,11.74-3.87-.52-6.79-3.44-6.93-6.74-.79-9.95,4.13-19.77,11.72-27.21h0ZM146.02,695.59c2.21-3.36,4.31-7.02,8.18-9.23-4.72,8.06-9.62,16.24-11.67,25.14-.69,3.41-1.03,7.34,1.57,10.26,2.02,1.84,5.26,2.16,8.02,1.61,4.2-.79,6.15-4.51,7.87-7.46,1.33,2.2-.05,4.57-.66,6.77-1.74,4.64-3.8,9.67-8.61,12.69-3.69,2.39-8.95,1.43-12.49-.67-4.67-3.1-4.77-8.7-3.95-13.24,1.84-9.2,6.61-17.72,11.74-25.88h0v.02ZM487.65,659.62c1.36-2.21,4.05-4.82,7.34-3.72,3.95,1.02,8.65,3.67,8.03,7.65-1.07,1.36-2.43,2.52-3.62,3.79-1.28-2.07-2.72-4.69-5.72-5.13-3.9,1.08-6.25,4.41-7.47,7.57-2.59,6.92-3.16,14.23-3.9,21.41-.95.43-1.89.85-2.85,1.23.03-6.62-1.67-13.64-6.9-18.77-1.18-1.7-3.82-.85-5.61-1.67-3.33-1.02-4.54-4.08-5.34-6.72-.41-1.79-1.11-3.92.28-5.51,2.95-.72,5.25,1.48,7.34,2.85,5.41,4.36,9.13,9.95,12.2,15.67,1.29-6.38,2.66-12.9,6.23-18.69h0v.03ZM1049.78,642.16c4.1-1.2,8.39.38,11.74,2.38,5.59,3.51,9.95,8.26,13.31,13.38,1.8,2.97,3.85,6.21,3.13,9.65-.43,2.31-.64,4.8-2.28,6.79-1.8,1.9-5.21,1.7-7.49.57-2.61-1.25-5.08-2.67-7.8-3.74-3.69,8.47-11.44,15.16-19.85,20.46-5.69,3.69-11.93,6.74-18.26,9.57-3.9,1.79-8.21,2.74-12.41,3.9-4.18,1-8.43,2.33-12.83,1.97,2.79-.13,4.98-1.67,7.33-2.75,12.23-6.03,24.21-12.52,35.09-20.21,5.79-4.25,11.69-8.65,15.59-14.31-2.51-.46-5.03-.85-7.57-1.15-2.05-5.05-2.07-11.21,2.34-15.38-2.2-1.43-2.46-4.03-2.82-6.2-.31-1.89.43-4.26,2.8-4.92M1060.75,654.63c.84,3.74,1.08,7.54,1.15,11.34,3.44.43,6.87,1.57,10.39,1.25,1.79-.23,1.72-2.21.74-3.16-3.26-3.82-7.8-6.69-12.26-9.43M1049.08,660.73c1.77,2.77,5.75,3.48,9.03,4.36.67-1.79,1.54-3.66,1.21-5.54-1.18-1.95-2.79-4.51-5.75-4.51-2.56,1.11-3.57,3.54-4.49,5.69h0ZM822.89,636.9c2.03-2.23,5.47-3.31,8.72-3.39,2.25-.02,3.34,2.03,3.87,3.59.98,3.69,1.15,7.7-.97,11.15,1.1.67,2.21,1.36,3.33,2.03-.3,2.36-.51,4.74-.56,7.11-2.25-1.02-3.97-2.64-5.88-4-5.97,8.72-14.69,16.29-25.55,20.57-5.75,2.46-12.33,3.52-18.72,2.85,12.11-3.67,23.88-8.97,32.67-17.1,3.02-2.79,5.62-5.87,7.82-9.16-1.7-1.54-3.74-2.85-5.07-4.66-1.07-2.88-1.84-6.33.34-8.98M826.22,639.73c.89,2.11,2.56,3.85,4.31,5.49.74-1.82,1.7-3.8.62-5.69-1.66-.28-3.31-.11-4.93.2h0ZM146.72,662.57c24.31-12.93,48.72-25.77,73.07-38.63-.7,4.49-2.51,9.7-7.62,11.95-22.55,11.85-45.14,23.64-67.66,35.52-.59.26-1.2.48-1.84.64,1.44-3.13,2.52-6.38,4.03-9.47h.02ZM655.66,594.21c1.87-2.29,3.98-4.49,6.34-6.46-1.74,3.36-.7,7.02.11,10.44.92,3.75,2.16,7.44,3.54,11.08.97,2.75,4.69,3.72,7.67,4.26,1.79.48,3.97-.64,3.28-2.38-1.64-4.46-3.74-8.79-6.15-12.98.85-2.82,1.82-5.61,2.64-8.43,1.13,0,2.26,0,3.41.02.98,5.21,3.92,9.93,6.61,14.62,0,5.06-.34,10.34-2.48,15.15-1.41,3.41-6.15,4.46-9.97,4.2-5.08-.84-8.44-4.54-11.42-7.8-1.48,4.28-5.67,7.61-10.64,8.93-4.2,1.31-9.03-.59-11.29-3.72-2.48-3.48-2.93-7.67-2.82-11.65.23-5.69,1.52-12.33,7.54-15.74h1.69c-.26.1-.82.3-1.08.41-3.66,5.67-3.88,12.82-.64,18.65.95,1.85,3.34,3.18,5.75,2.74,3.02-.62,5.41-2.44,7.46-4.31.07-5.69.05-11.39.41-17.06h0l.03.03ZM176.03,582.33c5.46-1,10.43,1.89,14.31,4.8,5.2,4.29,9.52,9.43,12.26,15.15.84,1.72,1.2,3.62.89,5.47-.39,2.46-.62,5.18-2.48,7.23-2.18,1.7-5.61,1.33-7.9.02-2.29-1.28-4.69-2.44-7.18-3.41-3.74,8.39-11.39,15.03-19.72,20.33-6.54,4.2-13.67,7.72-21.05,10.75-5.28,1.7-10.69,3.16-16.18,4.33-2.18.51-4.46.46-6.7.41,1.31-.26,2.72-.34,3.92-.92,12-5.75,23.7-11.98,34.62-19.13,7.36-5.03,14.69-10.36,19.92-17.11-2.54-.49-5.1-.95-7.69-1.16-2.05-5.05-2.1-11.2,2.21-15.44-2.08-1.54-2.38-4.08-2.75-6.25-.39-2.1.87-4.61,3.52-5.05M186.22,594.9c.97,3.77,1.07,7.64,1.25,11.47,3.64.34,7.29,1.8,10.95,1.05,1.69-.8.51-2.66-.38-3.59-3.34-3.49-7.59-6.26-11.82-8.92M177.29,596.52c-1.2,1.51-2.57,3.23-2.39,5.11,2.11,2.25,5.67,3.2,8.9,3.69.31-1.08.69-2.13.93-3.23.89-2.21-1.13-4.18-2.74-5.72-1.2-1.23-3.67-1.28-4.72.13h0l.02.02ZM582.1,577.99c3.56,2.52,5.72,6.13,8.13,9.44,6.16,9.2,11.41,18.8,16.49,28.44,11.15,20.7,18.49,42.81,22.52,65.29,1.15,6.97,2.31,13.98,2.07,21.03.67,14.01,2.64,28.34,9.54,41.22,5.08,8.75,13.7,16.54,20.47,22.21,3.23,1.89,4.59,1.44,5.44.67.52-.48.31-6.62,1.39-9.51,1.52-4.74,5.03-8.77,8.75-12.46,4.16-3.87,8.88-7.41,14.44-9.75,11.15-4.79,22.7-8.87,34.36-12.64,8.79-2.77,17.72-5.21,26.85-6.98-39.19.23-78.38.51-117.58.89,1.95-8.06,3.95-16.13,5.97-24.19,4.16-4.62,9.39-8.43,14.56-12.21,22.47-15.72,48.42-27.36,74.7-37.77-3.08-4.08-7.36-7.9-8.03-12.92-1.59-7.05,1.87-14.01,6.21-19.88,2.57-3.33,4.98-6.97,8.95-9.26,3.98-2.34,9.36-2.49,13.7-.84,14.57,5.54,29.6,15.31,40.72,24.08,1.11.95,2.54,1.79,3.25,3.02-2.62,7.18-5.38,14.33-7.92,21.54-11.59,2.2-23.23,4.29-34.52,7.44,1.15,6.06,3.2,12.69.11,18.56-1.07-.13-2.52-.28-2.7-1.39-.44-5.1-3.33-9.74-6.31-14.08-14.41,4.8-28.78,9.79-42.37,16.11-10.95,5.15-22.05,10.75-30.16,19,60.26.02,120.53.02,180.78,0-3.87,7.2-8,14.29-11.93,21.46-39.45,8.15-78.83,16.87-117.12,28.44-16.06,4.98-32.11,10.47-46.36,18.62-1.48.95-2.33,2.72-1.25,4.15,2.21,2.88,6.25,4.07,9.64,5.7,7.36,3.46,15.52,5.34,23.54,7.36,5.75,1.44,11.49,2.87,17.23,4.33-.48,8.62-.56,17.26-1.18,25.88-4.7,0-9.49-.7-14.23-1.05-9.26-.93-18.65-1.56-27.59-3.97-12.16-3.26-23.11-9.46-31.7-17.42-9.43-8.59-16.23-19.03-21.11-29.95-6.67-15.15-10.38-33.7-11.67-49.8-.59-.07-.74,3.13-1.29,3.08-1.67,7.1-3.64,13.39-6.43,20.23-.52,1.62-1.93,2.87-3.18,4.13-8.97,8.84-18.54,17.23-28.54,25.21-10.24,8.08-20.92,15.83-32.44,22.57-12.13,7.05-25.24,13.39-39.75,16.06-7.8,1.38-16.65,1.64-23.49-2.38-7.62-4.43-11.34-12.11-13.36-19.47-6.95,4.47-13.97,8.88-21.11,13.11-6.46,3.67-12.9,7.56-20.31,9.79-18.51,5.82-37.77,9.64-56.91,13.59-13.74,2.64-27.49,5.28-41.31,7.54,12.82-6.16,25.83-12.05,38.59-18.31,34.62-16.78,68.71-34.44,101.27-53.98,4.44-18.01,11.61-36.16,25.49-50.62.18-.03.52-.13.7-.16-1.1,2-1.64,4.18-2.77,6.16-8.36,12.42-14.31,26.16-16.42,40.39,14.82-9.13,29.28-18.7,42.88-29.13,8.41-6.39,16.31-13.26,23.52-20.62,1.98-2.08,4.69-3.87,5.43-6.62.33-1.79.15-2.88-1.05-6.57-8.41-19.72-20.36-44.31-28.29-61.65,2.72-8.75,5.23-17.56,7.97-26.31,3.66,2.03,6.03,5.25,8.64,8.15,5.31,6.61,10.31,13.41,14.79,20.46,2.51,3.87,2.98,8.36,3.9,12.64-3.61-2.74-6.11-6.47-10.1-8.82.18.62.41,1.23.74,1.84,6.33,10.57,10.64,21.96,13.44,33.59,1.74,6.9,2.48,13.97,2,21.01-.36,7.64-1.59,15.46-5.72,22.36-3.67,6.11-8.62,11.61-13.79,16.87-17.49,17.41-38.01,32.41-58.83,46.86.03.84,1.15,1.07,1.82,1.52,7.46,3.95,16.78,3.54,25.11,2.31,6.28-1.23,12.74-2.16,18.49-4.77,15.08-6.69,28.23-16.01,40.91-25.52,16.64-12.83,32.31-26.57,47.26-40.8-5-15.03-10.18-30-15.47-44.96-2.87-7.8-5.54-15.69-8.97-23.33-5.69-10.08-11.16-20.29-16.13-30.64,2-7.9,4.52-15.72,6.65-23.62M733.75,618.64c-1.82.61-3.34,2.31-2.59,4.03.28,1.29,1.95,1.74,2.84,2.7,3.66,3.59,7.11,7.34,10.29,11.26,7.93-2.44,15.98-4.56,23.98-6.8-5.97-4.82-12.57-9.43-20.52-11.61-4.52-1.29-9.59-1.15-14,.41h0ZM909.21,608.26c24.42-12.82,48.72-25.82,73.17-38.59-.69,3.98-2.03,8.34-5.9,10.98-23.69,12.52-47.49,24.87-71.17,37.41,1.02-3.34,2.61-6.52,3.9-9.8h0ZM785.98,559.92c2.26-1.11,5.57-1.03,7.1,1,2.1,2.69,2.67,6.21,1.52,9.31-2.15,6.13-6.9,11.34-12.08,15.88-6.29,5.21-13.85,10.03-22.77,11.2,1.49-1.57,3.69-2.44,5.61-3.56,5.52-3.15,10.83-6.64,15.47-10.7,2.43-2.39,5.07-4.97,5.51-8.23.16-2.74-2.77-5.08-5.75-5.54-4.36.66-7.08,3.85-10.28,6.1-.77-1.98,1.28-3.38,2.49-4.84,3.84-3.95,7.7-8.2,13.18-10.62h0ZM467.86,546.64c7.47-3.9,14.79-8.03,22.36-11.8-.74,4.03-2.28,8.69-6.9,10.7-16.52,8.57-32.87,17.39-49.44,25.88,1.85-3.21,3.67-6.46,5.7-9.59,9.34-5.16,18.87-10.11,28.28-15.19h0ZM1187.29,521.53c10.88,6.21,19.87,15.08,24.72,25.46,4.79,10.06,4.75,21.49.89,31.77-.52,1.18-1.64,2.08-2.57,3.03,1.67-6.98,2.25-14.31-.08-21.23-3.29-10.97-12.74-20.08-24.21-25.59.57-4.47.7-8.98,1.25-13.44h.02ZM924.93,526.04c1.87-1.93,3.69-3.92,5.75-5.7-1.95,3.87-.46,8.06.46,11.98,1.05,3.59,2.07,7.21,3.66,10.65,1.98,2.21,5.49,3.34,8.7,3.25,1.49,0,2.21-1.49,1.69-2.56-1.57-4.33-3.62-8.51-5.95-12.57.44-2.98,1.75-5.85,2.67-8.77,1.11.08,2.25.16,3.39.26.74,5.29,4.02,9.98,6.57,14.74-.11,3.82-.43,7.67-1.29,11.44-.66,2.62-1.8,5.66-4.93,6.84-2.66.87-5.79,1.36-8.47.31-3.95-1.48-6.75-4.41-9.18-7.33-1.54,4.13-5.44,7.41-10.23,8.85-3.93,1.54-8.72-.07-11.21-2.88-2.87-3.31-3.36-7.59-3.41-11.57.16-3.82.52-7.77,2.46-11.28,1.26-2.36,3.21-4.67,6.21-5.56-4,5.61-4.44,12.77-1.49,18.78.85,1.7,2.61,3.36,4.93,3.41,3.54-.15,6.29-2.31,8.65-4.38-.05-4.88.2-9.75.21-14.64.16-1.1-.23-2.43.8-3.29h0v.02ZM333.31,486.42c8.92,4.9,16,12.34,19.39,20.9,2.75,6.92,2.56,14.54.11,21.51-.33,1.13-1.33,1.98-2.23,2.8,1.8-6.57,1.62-13.69-1.62-19.93-3.31-6.44-9.36-11.75-16.54-15.18.39-3.36.59-6.74.9-10.1h-.02ZM620.86,479.11c2.02-2.11,3.82-4.56,6.51-6.1-1.77,2.28-1.03,5.1-.61,7.61,1,4.69,2.48,9.31,4.21,13.83.56,1.89,2.85,2.7,4.75,3.43,1.72.54,3.79,1.05,5.52.33,1.1-.82.59-2.21.2-3.23-1.67-3.97-3.39-7.95-5.75-11.67l2.7-8.65c1.18.08,2.36.15,3.56.21.54,5.33,4,9.98,6.47,14.75-.08,4.08-.44,8.18-1.48,12.18-.59,2.36-1.87,4.84-4.49,6.02-3.02,1.02-6.59,1.48-9.54.08-3.41-1.66-6.15-4.2-8.28-6.95-1.72,4.23-5.84,7.59-10.85,8.97-3.44,1.1-7.54-.07-9.9-2.39-3-2.64-3.8-6.46-4.08-9.98-.23-4.52.2-9.2,2.28-13.41,1.2-2.44,3.33-4.59,6.15-5.79-2.77,4.66-4.2,10.08-2.64,15.23.69,2.7,1.82,6.15,5.38,6.98,3.84.41,6.87-2.05,9.34-4.2.46-5.75.18-11.54.54-17.28h0v.03ZM917.32,471.83c12.9-4.72,25.78-9.51,38.98-13.59-.41,2.54-1.49,5.44-4.41,6.65-18.72,6.77-37.52,13.44-55.85,20.96-3.64,1.7-7.38,3.46-10.21,6.08,2.03,1.89,5.05,2.61,7.79,3.46-.03,1.84-.03,3.67-.03,5.51-3.87-.8-7.75-2-10.75-4.28.18-2.61.11-5.23.54-7.82.44-2.36,3.28-3.46,5.33-4.74,9.08-4.8,18.92-8.46,28.64-12.21h0l-.02-.03ZM337.16,448.95l.52.44c-1.16,1.26-.57,2.92-.38,4.36.64,3.11,1.54,6.2,2.8,9.16.41,1.33,2.05,1.97,3.43,2.41,1.21.21,3.18.72,3.69-.66-.84-3.23-2.84-6.1-4.07-9.2.59-1.79.85-3.7,1.85-5.36.67,0,1.36.03,2.03.07.67,3.48,2.8,6.52,4.33,9.72-.08,3.29-.21,6.7-1.67,9.8-.92,2.1-3.82,2.66-6.15,2.62-3.41-.41-5.66-2.85-7.67-4.98-1.29,3.1-4.62,5.52-8.51,5.95-3.26.15-6.02-2.08-6.88-4.62-1.13-3.36-1-6.97-.08-10.34.72-2.36,2.11-4.92,5-5.84-2.28,3.26-2.84,7.26-1.56,10.9.49,1.51,1.41,3.38,3.51,3.59,2.33.03,4.05-1.46,5.7-2.64.43-3.72-.08-7.47.46-11.18.84-1.59,2.51-2.79,3.62-4.25h0l.02.03ZM444,442.54c1.43.33,2.44,1.31,3.62,2,7.11,4.97,13.03,11.41,15.85,18.92,2.64,6.79,2.48,14.24.13,21.06-.33,1.18-1.21,2.13-1.98,3.13-.07-.13-.18-.38-.25-.51,1.72-6.31,1.46-13.1-1.54-19.1-3.25-6.57-9.31-12.01-16.62-15.44.18-3.36.49-6.7.8-10.05h0l-.02-.02ZM508.48,436.69c1.8-3.72,6.52-6.85,11.46-6.13,2.46.44,4.18,2.28,5.07,4.2,1.72,3.92,1.98,8.2,1.38,12.33,3.02,3.07,6.31,6.18,7.57,10.16,2.34,5.23.25,10.82-1.75,15.87-2.56,6.69-7.41,12.75-8.31,19.87-.31,1.75.48,3.67,2.61,4.28,3.41-.85,3.93-4.28,4.64-6.79,1.07-.21,2.74-.31,3.1.84.59,3.16-1.05,6.2-2.38,9.08-1.2,2.2-2.85,4.77-5.92,5.26-2.44.38-4.31-1.44-5.29-3.1-2.79-4.8-1.92-10.49.43-15.28,3.64-7.64,8.44-15.31,8-23.78,0-3.59-1.77-7.03-4.62-9.65-4.26,9.75-11.15,18.54-19.08,26.41-4.1,4.33-10,6.95-15.62,9.59-5.03,2.21-10.15,4.39-15.51,5.98,10.33-6.29,20.23-13.18,28.8-21.18,7.06-6.72,13.57-14.31,16.19-23.18l-.18-.51c-3.82-2.1-8.41-3.93-10.41-7.64-.85-2.1-.74-4.47-.16-6.61M512.3,437.76c-.98.54-.31,1.57.49,1.93,2.41,1.18,4.88,2.29,7.38,3.34-.07-2.13.39-4.79-1.8-6.31-1.92-1.36-4.52-.18-6.06,1.05h0v-.02ZM920.45,433c1.29-1.9,3.28-4.25,6.23-3.92,3.13.59,6.2,2.02,8.11,4.25.98,1.39,1.79,3.52.05,4.75-.92.75-1.56,2.03-2.69,2.41-1.57-1.74-2.8-4.85-5.98-4.77-3.98,1.25-6.2,4.67-7.39,7.93-2.48,6.72-2.98,13.8-3.75,20.75-.79.69-1.85,1.08-2.8,1.57,0-7.05-1.93-14.6-7.88-19.82-2.87-.3-6.28-.59-7.88-2.95-1.95-3-3.36-6.72-2.02-10.1,3.03-.51,5.49,1.43,7.56,3.03,5.46,4.25,8.98,9.87,12.16,15.46,1.34-6.34,2.7-12.83,6.28-18.59h0l.02-.02ZM144.13,435.3c1.66-2.49,3.49-5.05,6.38-6.65-4.61,8.41-9.95,16.77-11.65,26.05-.54,3.03-.56,6.51,1.74,9.06,2.15,2.29,6.05,2.33,9.08,1.52,3.39-1.15,4.98-4.25,6.57-6.82.7.02.85.72,1.2,1.15-1.79,5.97-3.52,12.42-8.82,16.95-4.93,4.41-14.65,2.15-17.06-3.34-1.75-3.95-1.18-8.31-.15-12.33,2.54-9.06,7.33-17.54,12.72-25.6h0v.02ZM606.52,425.84c8.84,5.11,16.08,12.51,19.46,21.19,1.67,4.56,2.29,9.43,1.64,14.16-.48,3.46-1.13,7.05-3.43,10.03-.33-.9-.11-1.84.1-2.74,1.52-6.87.23-14.24-3.98-20.29-3.46-5.05-8.59-9.28-14.62-12.06.11-3.44.51-6.87.82-10.31h0l.02.02ZM729.83,421.22c3.49,1.54,5.77,4.34,8.02,6.97,5.47,6.8,10.13,14.42,14.31,21.85.41.98.43,2.2.72,5.46-2.52-2.33-5.47-4.57-9.21-5.25-.66,1.25-.66,2.59-.1,3.85,4.87,12.65,10.38,25.14,15.08,37.85,3,8.28,5.64,16.78,5.74,25.51.21,8.1-1.43,16.18-4.23,23.9-2.84,7.25-7.16,14.44-14.41,19.23-5.95,4.1-13.9,5.8-21.47,5.2-9.24-.59-18-4.36-24.42-9.98-3.43-2.77-6.21-6.03-8.82-9.36l1-.2c-.28.03-.82.08-1.1.11-5.79-8.28-10.1-17.31-12.57-26.7.23-1.21-2.51-1.11-2.25.1-3.54,13.7-9.18,27.21-18.51,38.9-5.46,6.7-12.51,12.69-21.26,16.23-9.54,3.82-20.77,4.07-30.8,1.62-10.08-2.46-18.08-9.21-22.41-17.18-6.28-11.41-7.23-24.31-6.54-36.7,1.34-10.02,4.29-19.8,7.18-29.57.97-3,1.84-6.23.59-9.28-.41-.18-1.2-.52-1.59-.7-1.34.74-2.74,1.48-3.79,2.52-7.39,6.92-11.59,15.74-14.93,24.51-2.54,7.05-4.51,14.26-5.84,21.55-1.77,11.52-4.46,23.19-10.72,33.64-3.39,5.56-8.49,11.33-16.16,12.59-7.11.8-14.72-1.08-19.93-5.34-6.38-5.06-9.18-12.41-10.87-19.49-2.69-12.69-1.85-25.7-.16-38.44,1.13-7.85,2.74-15.65,4.74-23.37.66-.05,1.33-.1,2-.13-2.66,13.01-4.49,26.24-4.02,39.47.41,7.54,1.46,15.23,5.08,22.21,2.46,4.79,6.62,9.23,12.41,11.29,5.46,1.89,12.21,2.23,17.33-.59,5.29-2.95,7.77-8.2,9.74-13.06,3.87-10.79,5.57-22,8.62-32.95,3.18-11.11,7.77-21.93,13.38-32.34,3.21-6.06,6.77-12.03,11.31-17.46,4.05-4.84,7.75-10.15,13.49-13.7.43.02,1.28.05,1.7.07,1.05,3.64-.18,7.41-.38,11.11-.36,6.1-2.97,11.82-4.47,17.72-1.87,6.75-3.46,13.56-5.05,20.36-2.48,9.74-4.23,20.01-1.11,29.82,2.34,7.69,8.61,14.46,17.05,17.97,5.49,2.44,11.65,3.69,17.83,3.88,8.69.74,17.77-.15,25.54-3.69,9.36-4.13,16-11.64,20.29-19.65,4.2-8.02,6.61-16.69,7.29-25.42.1-17.36-1.33-35.05-8.33-51.49-.89-2.28-2.07-4.64-1.54-7.06,1.1-6.69,3.74-13.13,6.84-19.33.2-.7,1.2-.75,1.8-1.13,3.31,8.38,6.52,16.8,8.52,25.47,2.52,11.28,3.98,22.7,5.47,34.11,1.18,8.15,1.54,16.41,3.93,24.39,2,6.62,5.11,13.1,10,18.59,5.93,7,14.85,12.2,24.77,14.18,8.49,1.67,17.56-.48,24.69-4.49,3.75-2.16,7.65-5.84,6.41-9.98-11.88-26.51-21.67-53.65-31.37-80.76-.64-2.25-1.87-4.38-2.07-6.69,1.26-7.18,4.23-14.05,7.56-20.69h0v-.03ZM397.71,443.49c4.07-7.77,8.11-15.56,12.26-23.29,8.03,15.65,14.56,31.85,19.44,48.4.57,3.34-.59,6.7-.44,10.08-2.8-4.21-6.02-8.23-8.95-12.38.75,7.59,2.13,15.15,2.97,22.74,5.62,44.85,10.56,89.76,14.77,134.72,4.84-2.97,8.52-7.23,10.59-11.97,2.7-5.33,5.62-10.64,9.57-15.39,1.48-1.7,3.44-3.9,6.31-3.38,1.62.08,2.39,1.56,2.56,2.75.72,4.23-3.05,7.87-2.41,12.05.18,3.44,3.34,6.39,7.11,7.43,6.52,2,13.59,1.1,20.28.3,3.02-.56,6.79-1.05,8.25-3.7-1.57-4.26-3.31-8.47-5.29-12.62,2.82-6.1,6.05-12.06,8.98-18.13.75-1.43,1.26-3.02,2.51-4.21,2.13,6.93,2.67,14.13,3.54,21.23.89,11.49-1.28,23.41-8.03,33.52-3.64,5.18-9.08,9.87-16.18,11.36-6.18,1.26-12.97.69-18.57-1.93-6.49-3.13-10.93-8.64-13.26-14.56-3.51,6.84-8.13,13.31-14.01,18.87.69,8.88,1.44,17.75,1.97,26.64.39,9.9-2.61,19.62-6.08,29-1.69,4.03-3.34,8.08-5.41,11.98-18.47,25.6-42.9,48.27-72.2,65.21-19.18,11.16-40.41,19.83-62.68,25.52-11.64,2.87-23.55,5.2-35.67,5.95-12.51.15-25.19-1.23-36.88-5.11-10.97-3.62-20.56-10.23-26.7-18.77-21.6,1.89-43.32,2.93-65.06,2.98,19.37-5.88,38.55-12.24,57.42-19.24-5.03-20.82-.87-42.29,5.43-62.57,3.85-12.29,8.41-24.51,14-36.29,4.23-9.44,5.9-13.79,13.98-24.92-8.47,12.67-9.7,17.88-13.49,26.87-5.1,13.83-8.75,28.1-9.83,42.57-1.07,15.9.28,32.6,9.03,46.99,23.24-9.21,45.86-19.57,67.57-31.18,18.39-10,36.18-20.9,52.32-33.39,7.65-6,15.1-12.26,21.39-19.34,1.85-1.85.95-4.49.34-6.61-1.39-3.54-2.98-7.03-4.61-10.49-11,3.77-22.7,6.36-34.64,6.31-6.51.16-13.2-.89-18.8-3.8-4.8-2.51-8.38-6.64-9.82-11.26-2-6.06-1.13-12.47.07-18.6,1.9-8.87,5.75-17.72,13.06-24.42,5.13-4.69,11.93-8.29,19.47-9.23,8.52.03,16.54,3.56,22.62,8.46,7.74,6.23,13.03,14.29,17.1,22.57,7.59-3.74,14.87-8.18,20.52-13.93,5.54-4.88,11.24-9.87,18.31-13.15,1.77-.85,4.8-1.8,5.98.2,1.28,2.98.07,6.25-.8,9.21-2.28,4.33.48,9.23,3.88,12.54,4.74,4.54,12.52,4.97,19.13,3.95-6.92-60.27-13.95-120.54-20.88-180.82-.15-2.02-1.18-3.87-2.07-5.72M303.49,628.57c-3.39,1.25-7.64,3.08-8.15,6.54.8,2.64,4.44,3.44,7.18,4,8.82,1.44,17.98,1.43,26.78-.05-.16-.26-.49-.8-.66-1.07-4.59-4.41-10.44-8.21-17.41-9.33-2.56-.33-5.26-.95-7.77-.11M361.22,653.19c.92,12.28-1.11,24.7-5.69,36.37-1.77,4.05-3.23,8.34-6.56,11.72-16.36,18.52-37.42,33.67-59.62,46.95-19.78,11.69-40.67,22.05-62.48,30.7,3.72,1.54,7.64,2.79,11.72,3.51,10.9,2.05,22.16.95,33.08-.39,34.19-4.34,66.39-17,94.12-34.29,18.37-11.46,35.13-24.82,49.75-39.67,4.88-5.25,10.9-10.38,12.1-17.29-1.16-11.72-2.7-23.42-4-35.14-7.61,2.59-17.01,3.2-23.92-1.13-8.38-5.36-11.56-14.51-12.88-22.95-7.23,8.23-15.72,15.69-25.6,21.6h0l-.02.02ZM779.8,426.81c1.9-2.67,3.7-5.62,6.95-7.31-4.7,8-9.51,16.11-11.62,24.93-.82,3.82-1.1,8.46,2.59,11.31,2.15.89,4.62,1.41,6.97.72,4.28-.82,6.28-4.59,7.95-7.64.46,1.23.77,2.51.28,3.77-1.52,5.31-3.54,10.87-8.13,14.88-5.16,4.69-15.56,1.98-17.52-4.02-1.72-5.44-.15-11.15,1.74-16.41,2.75-7.05,6.56-13.77,10.82-20.24h-.02ZM236.55,441.77c4.57-7.51,8.97-15.1,13.42-22.65,7.25,16.03,12.97,32.55,16.95,49.39.26,3.07-.72,6.11-1.05,9.16-3.28-3.75-5.23-8.26-8.57-12.01,1.82,12.64,2.48,25.39,3.66,38.09,1.33,16.42,2.57,32.85,3.8,49.27,9.93-1.41,18.85-6.38,24.85-13.16,9.02-10.16,13.01-22.95,14.15-35.47-.08-16.08-1.08-32.44-7.05-47.83-1.05-3.15-2.98-6.2-2.95-9.52.7-6.2,3.16-12.15,5.75-17.93.66-1.36,1.08-3.08,3.02-3.48,2.95,7.72,5.98,15.42,7.95,23.36,3.03,12.44,4.51,25.11,6.2,37.73,1.13,7.64,1.46,15.41,3.74,22.88,2.95,10.06,8.95,19.87,18.82,26.28,7.43,4.77,16.9,8.05,26.34,6.77,6.65-1.02,13.39-3.26,18.06-7.57,2.1-1.9,3.56-4.7,2.66-7.33-9.54-20.8-17.33-42.14-25.19-63.44-2.69-7.41-5.33-14.83-7.97-22.24-.75-1.89.23-3.82.59-5.67,1.66-5.67,3.8-11.29,6.77-16.57,3.23,1.31,5.31,3.92,7.43,6.26,6.34,7.75,11.41,16.19,16.06,24.75-.23,1.1-.44,2.2-.61,3.29-2.36-2.49-5.39-4.7-9.18-5.34-.61,1.21-.57,2.54-.05,3.79,4.23,10.83,8.74,21.57,13.03,32.37,3.66,9.64,8.05,23.64,7.8,29.62-.77,8.41-2.16,19.56-5.16,27.39-3.29,6.97-9.05,15.28-16.87,19.1-6.7,3.43-15,3.95-22.55,2.69-9.95-1.69-18.49-7.15-24.62-13.87-8.59-9.47-13.87-20.85-17-32.42-.48,0-1.41.05-1.89.07-2.92,11.64-7.36,23.11-14.23,33.52-6.15,9.31-14.65,18.11-26.39,22.55,2.05,28.82,4.2,57.63,5.67,86.48.21,14.23-.46,28.44-1.29,42.65,0,1.93-.97,3.72-1.67,5.52-2.29,6.16-4.74,12.29-7.33,18.39-.41,1.02-.93,2.02-1.69,2.88-.33-27.16-3.05-54.26-5.21-81.33-1.97-23.85-3.93-47.7-5.84-71.57-9.39-.18-19.06-2.51-26-8.1-8.08-6.31-12.2-15.39-14.18-24.36-1.74-7.95-2.11-16.1-1.38-24.13,1.61-10.51,4.79-20.77,7.8-31.03.41-1.84.72-3.77.23-5.61-.18-.67-.38-1.46-1.29-1.66-1.41-.15-2.46.74-3.41,1.46-5.26,4.33-8.72,9.9-11.72,15.51-5.7,11.56-9.06,23.87-10.9,36.27-1.51,8.18-3.72,16.33-7.34,24.03-2.87,5.74-6.46,11.62-12.7,15.23-5.33,3.11-12.36,2.72-18.19.95-7.38-2.31-12.62-7.92-15.41-14-4.85-10.44-5.16-21.87-4.87-32.93.69-12.97,2.87-25.87,6.21-38.54.62-.11,1.26-.23,1.9-.33-2.7,14.52-4.92,29.26-3.64,43.98.62,6.38,1.97,12.83,5.18,18.67,2.74,4.98,7.54,9.47,13.88,11.11,5.41,1.41,11.8,1.29,16.41-1.79,5-3.39,7.36-8.69,9.2-13.74,4.31-12.75,5.92-26.05,10.38-38.78,4.33-12.47,10.21-24.57,17.47-36.03,4.21-5.93,8.77-11.74,14.08-17.01,1.57-1.39,3.15-3.36,5.64-3.38,1.36.74.89,2.38.92,3.54-.7,5.74-.77,11.61-2.79,17.16-3.7,11.39-6.2,23.05-8.92,34.62-1.89,9.02-2.39,18.65,1.69,27.31,3,6.61,9.23,11.95,16.75,14.93,4.08,1.64,8.51,2.64,12.98,3.18-2.48-32.18-5.26-64.34-7.82-96.51-.59-5-.2-10.18-2.49-14.92h0l-.03.02ZM1232.47,441.89c4.03-8.1,7.75-16.31,11.83-24.39,6.25,17.46,12.34,34.96,17.44,52.68.77,3.05,1.77,6.08,2.13,9.2-.52,2.46-1.41,4.88-1.49,7.41-2.23-3.64-4.46-7.26-6.72-10.88,2.84,45.34,6.28,90.65,10.11,135.94,1.18,14.57,2.92,29.11,3.56,43.7,1.15,27.03.03,54.67-9.65,80.65-3.64,9.39-8.28,18.56-14.16,27.1-7.92,11.05-19.65,19.77-32.57,26.46-23.01,11.74-49.34,17.83-75.63,21.6-1.49.46-2.1-1-2.93-1.67,23.46-9.57,46.01-20.83,67.06-33.83,10.52-6.69,20.83-13.72,29.69-22,10.15-9.69,17.8-21.36,21.29-34.03,3.82-12.74,2.51-25.98,1.66-38.95-2.2-29.87-4.92-59.71-7.25-89.58-3.57-46.03-7.18-92.06-10.75-138.08-.75-3.23-3.13-6-4.23-9.16-.3-.77.39-1.46.62-2.18h0v.03ZM1173.05,449.79c13.7-12.2,27-24.73,40.18-37.37.59,11.34-6.29,21.78-14,30.65-4.11,5.15-9.92,9.02-15.15,13.29-2.51,1.92-4.93,3.9-7.33,5.9.69,3.03,1.74,6.03,2.13,9.1-.2,2.85-.74,5.7-1.15,8.54-2.95-3.93-5.07-8.33-8.44-12,1.49,12.87,2.21,25.8,3.23,38.72,2.64,37.9,5.07,75.79,7.34,113.71-.13.98.89,1.59,1.52,2.29,9.75,9.2,19.47,18.42,28.6,28.08,7.18,8.1,13.97,16.46,19.72,25.34,7.54,11.62,13.52,24.23,15.28,37.5.95,8.34.48,16.97-2.72,24.96-5.66-21.92-16.05-41.83-28.14-55.65-10.2-11.77-21.34-23.31-32.59-34.36.79,13.52,1.57,27.03,2.18,40.55.59,17.44-.16,34.9-1.03,52.32,0,3.29-1.75,6.33-2.66,9.47-2.62,7.08-4.74,14.33-8.1,21.19-.54-16.1-1.18-32.21-2.33-48.29-2.07-28.8-4.23-57.58-6.16-86.38-.3-2.26-.15-4.57-.66-6.8-7.41-7.34-15.39-14.24-23.13-21.33-13.62-12.06-27.37-24.01-41.65-35.5,2.7,30.08,5.51,60.16,8.05,90.25,1.08,13.67,2.52,27.32,2.67,41.03.2,11.92.05,23.85-.26,35.75.03,7.52.16,15.29-2.98,22.44-4.66,8.85-13,16.24-23.06,20.82-7.85,3.54-16.74,5.41-25.64,5.47-6,.11-11.97-1.25-17.28-3.56-9.28-4.44-15.92-12.01-20.18-20.16-2.92-5.61-5.02-11.54-6.15-17.6-.66-2.66-1.36-5.72-4.15-7.38-2.23-1.28-4.88-.26-7.03.59-5.23,2.36-10.28,5.21-14.06,9.15-12.34,12.59-18.19,28.65-21.88,44.45-1.8,6.82-4.64,13.6-9.65,19.23-3.62,4.02-8.8,7.85-14.93,7.95-4.8.08-9.43-1.66-13.72-3.44-9.47-4.25-16.06-12.01-19.96-20.31-1.05-2.21-2.33-4.07-4.38-11.92-2.21-8.47-2.98-21.34-2.11-34.44.41-1.26-1.13-1.72-1.98-2.43-3.38-2.46-4.75-6.36-4.72-10.03-.1-13.47,2.21-27.18,8.9-39.52,5.43-10.16,13.56-19.05,21.46-27.88.74-.95,2.07-1.72,2.43-2.84-4.93-4.77-10.13-9.34-15.39-13.85-3-2.93-6.64-5.33-9.59-8.29-11.08-10.2-21.98-20.52-32.88-30.87,1.03,15.13,1.84,30.26,2.72,45.39.67,14.01,1.82,28.03,1.59,42.06.05,12.51-.62,25.01-1.21,37.5-.03,3.11-1.51,6.02-2.46,8.98-2.64,7.31-5.03,14.72-8.23,21.88-.59-5.92-.23-11.88-.67-17.82-1.21-29.57-3.93-59.08-5.88-88.61-1.66-22.6-3.1-45.21-4.87-67.8-7.26-7.64-14.92-15.03-22.1-22.75-8.41-9-16.8-18.05-23.85-27.87-10.1-15.41-21.44-30.37-35.45-43.47-.8-.64-.56-1.59-.54-2.39.48-8.47.87-16.95,1.36-25.42,9.97,5.51,19.47,11.61,28.62,18.06,7.08,5.18,13.82,10.74,19.56,17.01,2.95,2.97,5.69,6.75,4.69,10.8-3.36-1.13-6.85-2.03-10.03-3.51-1.28-.59-2.67-.98-4.11-1.16-.21,2.38,1.69,4.25,3.13,6.1,10.39,12.9,21.23,25.52,32.34,37.96,1.43,1.59,3,3.11,4.1,4.92-.7-14.59-2.02-29.18-2.95-43.77-1.57-22.52-3.2-45.06-4.77-67.58-.3-3.36-.1-6.84-1.69-10-.77-1.26.38-2.41,1-3.51,3.82-6.25,7.51-12.57,11.13-18.92.18-.44,1.02-1.59,1.26-.49,6.85,15.11,12.2,30.72,16.13,46.55,1.21,3.79-.28,7.65-.74,11.44-2.56-4.29-5.46-8.43-8.31-12.59,3.64,39.57,5.75,79.22,8.47,118.82,1.84,2.62,4.67,4.7,6.93,7.1,21.75,21.28,44.34,41.9,66.91,62.53,16.77-15.79,33.72-31.46,50.72-47.06.74-.57,1.25-1.29.98-2.16-5.11-49.24-10.24-98.5-15.36-147.75-.66-4.98-.48-10.1-2.69-14.83,4.2-7.64,8.79-15.11,12.95-22.77,2.28,4.02,3.85,8.31,5.64,12.51,4.23,10.46,7.88,21.08,10.77,31.85.61,2.43,1.59,4.88,1.2,7.39-.3,2.26-.67,4.52-.95,6.8-2.8-4.02-5.49-8.08-8.31-12.08,4,39.67,8.08,89.61,11.72,126.41,17.62-15.87,35.11-31.87,52.81-47.67,1.95-1.87,4.16-3.56,5.95-5.54-8.62-9.82-16.65-19.98-24.67-30.14-2.79-3.34-4.95-7.02-7.62-10.44-5.61-7.36-11.33-14.82-19.03-20.75-.67-9.57-1.03-19.16-1.51-28.75,18.08,13.39,36.44,26.52,54.01,40.41,1.69,1.28,3.02,2.85,3.97,4.59-1.59-14.98-3.03-29.96-4.52-44.95-.18-1.38-.13-2.8-.8-4.1-.44-1.31-1.69-2.72-.69-4.08,4.16-7.25,8.08-14.59,12.2-21.87,7.2,14.44,12.8,29.42,17.24,44.63.46,2.13,1.56,4.23,1.21,6.44-.33,2.43-.52,4.88-.85,7.31-2.54-3.57-5.08-7.16-7.59-10.75-.44-.57-.85-1.13-1.21-1.72,2.29,17.13,3.8,34.34,5.61,51.52,13.24-11.92,26.83-23.54,40.54-35.08,6.1-4.9,12.42-9.59,18.28-14.7-.56-6.65-.87-13.31-1.48-19.95-.11-2.11-2.39-4.23-.8-6.25,4.33-6.97,8.43-14.05,12.46-21.15,4.72,9.21,7.92,18.93,11.34,28.54M1094.17,533.27c.21,2.69.48,5.38.77,8.06,4.31,4.51,8.67,8.98,13.23,13.31,17.33,16.59,35.26,32.7,52.85,49.09-2.72-40.54-5.79-81.06-8.47-121.59-19.83,16.72-39.29,33.77-58.35,51.13M1056.75,496.5c5.56,7.36,11.34,14.62,17.51,21.64-.49-6.49-1.25-12.98-1.92-19.47-.33.57-.7,1.15-.98,1.74-4.2-2.59-9.31-4.62-14.62-3.9M1021.11,601.34c-3.59,3.59-7.59,6.9-10.98,10.62.8,11.49,2.52,22.95,3.59,34.44.52,18.98-3.2,39.14-16.97,54.68.39-2.48.21-4.97.25-7.46-.02-8.52.41-17.03.36-25.57-.05-8.16.13-7.61-.25-24.51-.16-7.05-1.18-12.65-1.85-17.6-4.8,4.31-9.39,8.8-14.18,13.11-9.43,8.93-19.46,17.39-29.13,26.14,9.82,8.97,15.98,20.77,17.57,32.91,1.61,12.92-2.2,26.65-12.2,36.7-8.82,8.8-21.47,14.36-34.62,16.92-6.16,1.16-12.75,1.95-18.88.2.77,5.43,1.72,10.83,3,16.18,2.2,9.03,5.07,18.13,10.74,26.1,3.03,4.07,7.2,8,12.93,9.2,6.11,1.26,12.34-1.34,16.65-4.92,3.84-2.92,5.61-7.15,7.23-11.16,4.87-11.85,6.51-24.59,12.93-35.98,4.51-9.05,10.24-17.82,18.52-24.78,4.29-3.79,9.23-7.02,14.39-9.88,3.56-1.8,7.87-3.31,12.06-2.26,3.98,1,6.67,3.98,8.52,6.98,4.2,6.77,5.29,14.51,8.69,21.54,2.49,5.82,5.79,11.72,11.64,15.64,5.92,3.97,13.72,5.18,21.11,4.92,12.88-.46,34.08-9.38,35.14-11.88,1.11-2.61-1.84-22.37-2.98-33.54-5.61-54.57-10.98-109.17-16.46-163.75-.18-1.51-1.77-2.52-2.56-3.79-18.42,16.69-36.27,33.8-54.27,50.8M937.15,679.65c-3.85,3.77-7.49,7.72-11.13,11.64-6.9,7.88-13.8,15.87-18.92,24.72-1.29,2.25-2.46,5.05-.98,7.44,1.75,2.44,5.49,2.8,8.56,2.82,13.56-.46,26.19-5.61,37.21-12.03,3.69-1.54,7.15-4.95,5.75-8.65-1.82-4.97-5.28-9.36-8.65-13.67-3.51-4.23-7.2-8.36-11.13-12.31-.18,0-.54.03-.72.05h.02Z"/>
</svg>