<svg xmlns="http://www.w3.org/2000/svg" viewBox="0 0 3 2" width="900" height="600">
  <rect width="3" height="2" fill="#DE2910"/>
  <g transform="translate(0.5,0.5)">
    <polygon points="0,-0.5 0.146,-0.154 0.476,-0.154 0.215,0.077 0.309,0.423 0,0.2 -0.309,0.423 -0.215,0.077 -0.476,-0.154 -0.146,-0.154" fill="#FFDE00"/>
  </g>
  <g transform="translate(0.95,0.15) scale(0.16)">
    <polygon points="0,-0.5 0.146,-0.154 0.476,-0.154 0.215,0.077 0.309,0.423 0,0.2 -0.309,0.423 -0.215,0.077 -0.476,-0.154 -0.146,-0.154" fill="#FFDE00"/>
  </g>
  <g transform="translate(1.15,0.35) scale(0.16)">
    <polygon points="0,-0.5 0.146,-0.154 0.476,-0.154 0.215,0.077 0.309,0.423 0,0.2 -0.309,0.423 -0.215,0.077 -0.476,-0.154 -0.146,-0.154" fill="#FFDE00"/>
  </g>
  <g transform="translate(1.15,0.6) scale(0.16)">
    <polygon points="0,-0.5 0.146,-0.154 0.476,-0.154 0.215,0.077 0.309,0.423 0,0.2 -0.309,0.423 -0.215,0.077 -0.476,-0.154 -0.146,-0.154" fill="#FFDE00"/>
  </g>
  <g transform="translate(0.95,0.8) scale(0.16)">
    <polygon points="0,-0.5 0.146,-0.154 0.476,-0.154 0.215,0.077 0.309,0.423 0,0.2 -0.309,0.423 -0.215,0.077 -0.476,-0.154 -0.146,-0.154" fill="#FFDE00"/>
  </g>
</svg>
