<svg xmlns="http://www.w3.org/2000/svg" viewBox="0 0 100 100">
  <defs><clipPath id="c"><circle cx="50" cy="50" r="50"/></clipPath></defs>
  <g clip-path="url(#c)">
    <rect width="100" height="100" fill="#DE2910"/>
    <polygon points="20,15 23,24 32,24 25,30 27,38 20,33 13,38 15,30 8,24 17,24" fill="#FFDE00"/>
    <polygon points="38,8 39,11 42,11 40,13 41,16 38,14 35,16 36,13 34,11 37,11" fill="#FFDE00"/>
    <polygon points="46,16 47,19 50,19 48,21 49,24 46,22 43,24 44,21 42,19 45,19" fill="#FFDE00"/>
    <polygon points="46,28 47,31 50,31 48,33 49,36 46,34 43,36 44,33 42,31 45,31" fill="#FFDE00"/>
    <polygon points="38,32 39,35 42,35 40,37 41,40 38,38 35,40 36,37 34,35 37,35" fill="#FFDE00"/>
  </g>
</svg>
